<svg xmlns="http://www.w3.org/2000/svg" xmlns:xlink="http://www.w3.org/1999/xlink" viewBox="0 0 139.14 139.12"><defs><style>.cls-1,.cls-10,.cls-11,.cls-12,.cls-3,.cls-6,.cls-7,.cls-8{fill:none;}.cls-1,.cls-10,.cls-11,.cls-12,.cls-4,.cls-7,.cls-8{stroke:#231815;}.cls-1,.cls-10,.cls-11,.cls-12,.cls-4,.cls-6,.cls-7,.cls-8{stroke-miterlimit:10;}.cls-1{stroke-width:0.02px;}.cls-2{fill:#dab866;fill-rule:evenodd;}.cls-4,.cls-5{fill:#231815;}.cls-4{stroke-width:0.5px;}.cls-6{stroke:#221714;stroke-linecap:round;stroke-width:0.25px;}.cls-7{stroke-width:0.31px;}.cls-8{stroke-width:0.34px;}.cls-9{clip-path:url(#clip-path);}.cls-10{stroke-width:0.17px;}.cls-11{stroke-width:0.15px;}.cls-12{stroke-width:2.24px;}</style><clipPath id="clip-path"><circle class="cls-1" cx="69.57" cy="22.88" r="10.83"/></clipPath></defs><g id="图层_2" data-name="图层 2"><g id="图层_1-2" data-name="图层 1"><path class="cls-2" d="M69.58,0a69.56,69.56,0,0,1,0,139.12c-27.91,0-47.06-18.21-49.61-20.8S-.67,96.75,0,69.56C.85,37.06,28.12,0,69.58,0Z"/><path class="cls-3" d="M18.76,119.27h0"/><path class="cls-3" d="M36.19,130.29h0"/><path class="cls-3" d="M51.48,135h0"/></g><g id="图层_2-2" data-name="图层 2"><path class="cls-4" d="M55.09,64.76c0-.66,0-2-.11-3.94L57.6,62l-1,.77v2h7.87L66,63.23l2.18,2.18H57.82q3.06,5.15,10.6,6.45v.44c-1.31.14-2.11.62-2.4,1.42q-6.88-3.06-8.75-8.31h-.65c0,3.35,0,5.36.11,6L55,72.3c.07-1.9.11-4.08.11-6.56a25.06,25.06,0,0,1-11.48,9l-.21-.33a25.59,25.59,0,0,0,9.83-9H47.55a9.84,9.84,0,0,0-2.62.33l-1-1Zm.65,13.55c0-1,0-2-.11-3.17l1.32.65,2.95-2.4H50.83l-1,.22L49,72.73H59.79l1-1,2,2.08c-.88-.08-2.66.69-5.36,2.29l1.1.66-1.21.54v1h7.44l1.53-1.53L68.42,79H57.27v4.59c0,1.31-.8,2.26-2.4,2.84q0-1.53-3.39-2.4v-.55a29.14,29.14,0,0,0,3.34.33c.61,0,.92-.44.92-1.31V79h-8.3a9.84,9.84,0,0,0-2.62.33l-1-1Z"/><path class="cls-4" d="M78.58,82.68l5-3,.22.43c-3.5,2.77-5.46,4.63-5.9,5.58L76.51,84.1c.43-.36.62-1.17.54-2.41V76.56h-2.4a8.06,8.06,0,0,0-2.08.33l-1-1h5.46V71.2H74c-.58.81-1.35,1.75-2.29,2.85l-.33-.33A48.91,48.91,0,0,0,76.4,61L79,62.46a2.17,2.17,0,0,0-1.2.93c-.22.4-.66,1.33-1.31,2.79h4.7l1.42-1.42,2.07,2.07H76.29c-.8,1.53-1.46,2.77-2,3.72h6l1.53-1.42,2.08,2.07H78.58v4.7h3.06l1.42-1.42,2,2.08H78.58ZM89,66.61v9.18c0,1.46,0,2.59.1,3.39L87.33,80c.07-1.17.1-3.66.1-7.49s0-6.43-.1-7.81L90,65.85Zm-.33,16.61c1.45.08,2.57.11,3.33.11s1.15-.32,1.15-1V66.07c0-.88,0-2.55-.11-5l2.73,1.2-1.09,1V82.79a3.09,3.09,0,0,1-2.3,3.39q-.1-1.86-3.71-2.52Z"/><path class="cls-5" d="M34.28,47.27l.27.08-.15,2.14H31a4.65,4.65,0,0,1,1.56-3.32,2.45,2.45,0,0,0,.94-1.87c0-1-.28-1.45-.82-1.45a.84.84,0,0,0-.71.78c.34.6.22,1-.35,1.14-.36,0-.54-.26-.54-.71a1.51,1.51,0,0,1,1.64-1.52,1.63,1.63,0,0,1,1.71,1.76A2.56,2.56,0,0,1,33,46.64a2.64,2.64,0,0,0-1.41,1.8h2C33.91,48.52,34.15,48.13,34.28,47.27Z"/><path class="cls-5" d="M37.25,42.58c1.14,0,1.72,1.21,1.72,3.55s-.58,3.51-1.72,3.48-1.79-1.13-1.76-3.48S36.08,42.58,37.25,42.58Zm0,.31c-.55,0-.82,1.06-.82,3.24s.27,3.33.82,3.25.82-1,.82-3.25S37.82,42.81,37.25,42.89Z"/><path class="cls-5" d="M43.26,47.27l.28.08-.16,2.14H40a4.65,4.65,0,0,1,1.56-3.32,2.41,2.41,0,0,0,.94-1.87c0-1-.27-1.45-.82-1.45a.83.83,0,0,0-.7.78c.34.6.22,1-.35,1.14-.37,0-.55-.26-.55-.71a1.52,1.52,0,0,1,1.64-1.52,1.63,1.63,0,0,1,1.72,1.76A2.59,2.59,0,0,1,42,46.64a2.66,2.66,0,0,0-1.4,1.8h2C42.9,48.52,43.13,48.13,43.26,47.27Z"/><path class="cls-5" d="M45.49,46.13v-.35a1.41,1.41,0,0,0,1.37-1.6c0-.86-.25-1.3-.74-1.33a.67.67,0,0,0-.67.67c.26.6.12.95-.43,1q-.51,0-.51-.66c.08-.86.63-1.32,1.64-1.37a1.57,1.57,0,0,1,1.65,1.68c0,.81-.51,1.38-1.53,1.72,1.12.26,1.66.89,1.6,1.87,0,1.2-.61,1.8-1.75,1.8s-1.72-.45-1.72-1.21c0-.47.22-.72.58-.74.57.13.72.49.43,1.09.13.42.37.63.71.63.54-.05.83-.58.85-1.57S46.51,46.16,45.49,46.13Z"/><path class="cls-5" d="M50.84,41.25l.9.43s0,.08,0,.08l-.16.31V43.6l.36,0,.43-.43.54.5c0,.06,0,.1,0,.12l-1.29,0v1.13q1,.39,1,.63a.84.84,0,0,1-.31.55c-.19.07-.29,0-.32-.08a2.46,2.46,0,0,0-.39-.86l0,2.58,0,1.68a1.61,1.61,0,0,1-.58,1,.43.43,0,0,1-.2.08.17.17,0,0,1-.08-.16l.08-2.73V45.94a18.64,18.64,0,0,1-2.18,2.66c-.06.07-.08,0-.08-.08a19,19,0,0,0,2.26-4.65v-.08h-.27a3.86,3.86,0,0,0-1.09.12l-.32-.31H50.8v-1c0-.6,0-1,0-1.33C50.76,41.24,50.79,41.23,50.84,41.25Zm.74,9.34c-.07,0-.09,0,0-.08a9.9,9.9,0,0,0,2.92-2.7,13.08,13.08,0,0,1-.74-2.53l.12-.08a6.51,6.51,0,0,0,1,2.07,8.93,8.93,0,0,0,1-2.54l.74.43c.08,0,.08.1,0,.23a11.16,11.16,0,0,1-1.32,2.39,6.19,6.19,0,0,0,2.89,1.83c.05,0,.07,0,.07.08s0,.08-.07.08a1.66,1.66,0,0,0-1.33.74,6.34,6.34,0,0,1-2-2.15A10.71,10.71,0,0,1,51.58,50.59Zm2.5-7.35.67.47c0,.08,0,.13,0,.16a16.8,16.8,0,0,1-2.11,2.34.1.1,0,0,1-.08,0,.17.17,0,0,1,0-.12A7.32,7.32,0,0,0,54,43.32C54,43.24,54,43.22,54.08,43.24Zm.59-1.91,1,.27a.1.1,0,0,1,0,.16.76.76,0,0,0-.08.43l0,.62h1l.5-.54.71.58c.05.08,0,.12,0,.12l-3.64.12a4.21,4.21,0,0,0-1,.12l-.27-.32,1.87,0,0-1.44C54.59,41.33,54.62,41.3,54.67,41.33Zm.94,2.15a4.63,4.63,0,0,1,1.83.9c.13.18.07.47-.19.86-.11.15-.22.14-.35,0a3.7,3.7,0,0,0-1.33-1.6C55.54,43.54,55.55,43.5,55.61,43.48Z"/><path class="cls-5" d="M66.39,41.41l.86.43c.08,0,.08.08,0,.15l-.28.39.12,4.42.08,2.26a2.29,2.29,0,0,1-.9,1.57c-.1,0-.17.06-.19,0s-.08-.1-.08-.2a5,5,0,0,0-.2-.94l-5.31,0a1.84,1.84,0,0,1-.59,1,.3.3,0,0,1-.19.12s-.05-.06-.08-.16l.08-7.38c0-.71,0-1.28,0-1.72,0,0,0,0,0,0l.9.62L66,42Zm-2,3.83s0,0,0,.07l-.12.24L64,47.38c-.11.29,0,.42.27.4a4,4,0,0,0,.7,0c.21,0,.35-.23.43-.59,0,0,0-.08.08-.08s.06,0,0,.08c0,.34,0,.56.19.66q.48.51-.27.75a2.68,2.68,0,0,1-1.21,0c-.6-.05-.87-.49-.82-1.32l.12-1.72V45H62.37l.7.24s0,.06,0,.11l-.08.28A4.15,4.15,0,0,1,60.53,49h0v.31l5.59,0L66,42.23l-5.47,0,0,6.64A4.18,4.18,0,0,0,62.25,45h-.16a2.39,2.39,0,0,0-.31,0,2.16,2.16,0,0,0-.7.08l-.32-.27,4-.08.47-.47.58.55s0,.06,0,.11l-2,0Zm-1.45-1.8a5.29,5.29,0,0,0-1,.08l-.28-.28,2.39,0,.43-.43.58.5a.24.24,0,0,1,0,.12Z"/><path class="cls-5" d="M70.53,45.24a1.85,1.85,0,0,0-.35,0,2.42,2.42,0,0,0-.74.07L69.08,45l3.79-.08V43l0-1.76,1.25.32c.06,0,.06.06,0,.11a1,1,0,0,0-.19.39v2.89l2.46-.07.62-.71.83.82c0,.08,0,.12,0,.12l-3.87.08v2.93l0,1.56a2,2,0,0,1-.9,1.17c-.1,0-.17,0-.2-.15l.08-2.35,0-3.12Z"/><path class="cls-5" d="M78.58,46.76q-.09,0-.12,0s0-.06,0-.12a12.16,12.16,0,0,0,3.87-5.27l.82.51s0,.09,0,.19a15,15,0,0,1-1.6,2.23v5.31a2.15,2.15,0,0,1-.59,1.06c-.08.07-.13.11-.16.11s-.07,0-.07-.11l0-2.62,0-3A19.26,19.26,0,0,1,78.58,46.76Zm4.1,1.09c-.08,0-.12,0-.12-.11s0-.08.08-.08l1.68,0v0l0-1.76,1.17.31s0,0,.08,0l-.08.08a.88.88,0,0,0-.19.39v.94l1.13,0,.43-.51.62.55,0,.08a.12.12,0,0,1-.08,0l-2.14.08V50l1.6,0,.54-.54.71.62c0,.05,0,.09,0,.12L83,50.28a10.06,10.06,0,0,0-1.13.11l-.28-.27L84.32,50V47.78Zm.12-4.33c-.06,0-.1,0-.12-.08s0-.12.08-.12l1.6,0v-.19l0-1.72,1.13.27c.08,0,.08.06,0,.16s-.14.16-.19.39v1.05l.89,0,.47-.51.67.58c0,.08,0,.12,0,.12l-2,0v2l1.44,0,.51-.5.62.54,0,.08a.09.09,0,0,1-.07,0l-5.51.12a.17.17,0,0,1-.16-.08s0-.09.12-.12l2.07,0,0-1.91Z"/><path class="cls-5" d="M90.37,46l-1,.08-.16,0-.39-.31,4.3,0,.5-.5.63.58c0,.08,0,.12,0,.12l-1.72,0,.67.31a.09.09,0,0,1,.07,0l0,.08-.11.31v2a1.81,1.81,0,0,1-1.06,1.8l-.11,0s0-.07,0-.12a.85.85,0,0,0-.32-.74c-.05-.08,0-.12,0-.12.44.08.64,0,.59-.35l0-2.15a6.62,6.62,0,0,1,0-1.09Zm.12-3.6h-.31a4,4,0,0,0-.82.12L89,42.23l3.83,0,.46-.47.63.55s0,.09,0,.11,0,0,0,0H92.6l.66.36q.12,0,0,.15a1,1,0,0,0-.11.51l-.08,1.13a1.22,1.22,0,0,1-.47.9c-.08,0-.14.07-.2,0s0,0,0-.12v-3Zm.74,4.11.67.43s0,.06,0,.11l-.2.24,0,.93.08.12s0,.08,0,.08a8,8,0,0,0-1.6,0v.16a.76.76,0,0,1-.31.74.15.15,0,0,1-.16,0s0,0,0-.08l0-1.13v-.86a3.38,3.38,0,0,0,0-.47V46.6a.09.09,0,0,1,0-.07l.08,0,.47.32.78,0ZM91.31,43l.66.39q.09,0,0,.12l-.19.23,0,.71,0,.11s0,0,0,0a8.1,8.1,0,0,0-1.6,0,.89.89,0,0,1-.31.67c-.08,0-.14.06-.16,0s0,0,0-.08V44.1l0-.39a3.5,3.5,0,0,0,0-.47V43s0-.06.12,0l.47.31.78,0ZM90.14,47v1.21l.82,0L91,47Zm.08-3.59,0,1,.86-.08v-.9Zm2.38,7.5-.12,0a.13.13,0,0,1,0-.12,6.7,6.7,0,0,0,2-2.65A9,9,0,0,0,95,44.53L96,45s0,.07,0,.12l-.12.08a7,7,0,0,0,2.23,4.92s0,.05,0,.08-.06.06-.08,0a1.8,1.8,0,0,0-1,.31q-1.32-1.34-1.29-5.31l0,0A6.78,6.78,0,0,1,92.6,50.94Zm4-7.62L96.9,43l.9.7c.07.11,0,.17-.08.2a2.13,2.13,0,0,0-1.25.62l-.08,0a.09.09,0,0,1,0-.08l.2-.93-1.92.11A15.52,15.52,0,0,1,93.54,45c-.08.05-.11,0-.08-.08a11.06,11.06,0,0,0,1.48-3.71s0-.06,0,0l.86.35c.11.06.12.12,0,.2a18.31,18.31,0,0,1-1.09,1.68Z"/><path class="cls-5" d="M105.37,41.53l.71.85c0,.08,0,.14-.12.16l-.94.08c-.62.05-1.14.1-1.56.16l.39.15c.05,0,.08,0,.08.12l0,1.44,1.76-.07.58-.59.71.66q.07.12,0,.12l-3,.12v1.72l2.69,0,.63-.7.86.78c.05,0,0,.07,0,.07l-4.14.12v2.11c0,.81-.44,1.41-1.49,1.8-.05,0-.07,0-.07,0s0-.07,0-.12c0-.44-.12-.73-.36-.86-.07-.08-.06-.13,0-.15.68.07,1-.06.94-.4l0-2.34-2.65.08c-.37,0-.72.06-1.06.12l-.31-.36,4-.07V44.73l-1.79,0-.51.08a4.84,4.84,0,0,0-.55.07l-.31-.35,3.16-.08,0-1.64a14.36,14.36,0,0,1-1.48.16l-1.25.16c-.08,0-.12,0-.12,0s0-.07.08-.12A33.06,33.06,0,0,0,105.37,41.53Z"/><line class="cls-6" x1="25.01" y1="55.37" x2="114.12" y2="55.37"/><circle class="cls-7" cx="69.57" cy="22.88" r="10.83"/><line class="cls-8" x1="71.7" y1="27.18" x2="67.44" y2="18.58"/><g class="cls-9"><circle class="cls-10" cx="69.57" cy="22.88" r="9.75"/><path class="cls-11" d="M69.57,29.3a6.41,6.41,0,0,1-4.54-11,6.57,6.57,0,0,1,2-1.38,6.5,6.5,0,0,1,5,0,6.5,6.5,0,0,1,3.42,3.42,6.5,6.5,0,0,1,0,5,6.57,6.57,0,0,1-1.38,2,6.35,6.35,0,0,1-4.54,1.88Z"/><polyline class="cls-8" points="77.29 36.06 55.58 36.06 55.58 9.22 66.8 9.18"/><polyline class="cls-8" points="71.9 26.62 63.88 30.48 67.61 31.15 66.64 32.5 76.99 35.98"/><polyline class="cls-8" points="62.14 9.79 72.5 13.27 71.53 14.62 75.26 15.29 67.24 19.14"/></g><circle class="cls-1" cx="69.57" cy="22.88" r="10.83"/><circle class="cls-12" cx="69.57" cy="22.88" r="4.91"/><polygon class="cls-5" points="50.09 114.38 49.31 114.01 48.81 114.38 46.9 114.38 46.9 111.33 49.54 111.33 49.54 111.03 49.54 111.03 49.54 111.03 48.76 110.66 48.25 111.03 46.9 111.03 46.9 108.42 46.05 108.42 46.05 114.38 43.24 114.38 43.24 114.68 46.05 114.68 46.9 114.68 50.09 114.68 50.09 114.38 50.09 114.38"/><path class="cls-5" d="M63.24,115h.85v-3.47c.4.48.39.65.58.82a.33.33,0,0,0,.48,0c.42-.48-.73-1-1.06-1.16v-.42h1v-.3h-1v-1.12a3.74,3.74,0,0,0,1-.37l-.73-.58a7.46,7.46,0,0,1-2.33,1v.25s.56,0,1.22-.15v.94H62v.3h1a11.12,11.12,0,0,1-1.16,2.77l.18.15a7.33,7.33,0,0,0,1.17-1.55Z"/><polygon class="cls-5" points="68.83 112.92 68.83 112.62 67.77 112.62 67.77 108.43 66.92 108.43 66.92 112.62 64.57 112.62 64.57 112.92 66.92 112.92 66.92 115.03 67.77 115.03 67.77 112.92 68.83 112.92"/><path class="cls-5" d="M66.16,110.3a.33.33,0,0,0,.47,0c.43-.61-1.26-1.07-1.26-1.07l-.11.15A11.61,11.61,0,0,1,66.16,110.3Z"/><path class="cls-5" d="M65.44,110.79l-.13.14A12.84,12.84,0,0,1,66.1,112a.33.33,0,0,0,.48,0C67.07,111.43,65.44,110.79,65.44,110.79Z"/><path class="cls-5" d="M84.05,110.76h2.76v-.3h0l-.79-.37-.51.37h-1.7a9.52,9.52,0,0,0,.1-2h-1a9.65,9.65,0,0,1,0,2H80.15v.3h2.68a5.06,5.06,0,0,1-2.68,3.92V115a5,5,0,0,0,3.59-4.19A5.33,5.33,0,0,0,86.16,115a.81.81,0,0,1,.91-.57v-.25A5.48,5.48,0,0,1,84.05,110.76Z"/><path class="cls-5" d="M95.89,109.9l-.78-.37-.5.37h-.82a8.7,8.7,0,0,0,1.07-1.25l-1-.32a6.89,6.89,0,0,1-.58,1.57H91.18a.23.23,0,0,0,.11-.08c.55-.61-1.35-1.38-1.35-1.38l-.14.15c.7.72.71,1,1,1.22a.42.42,0,0,0,.14.09H89.72c0-.14-.1-.32-.1-.32h-.23v0c-.12.69-.49.85-.49,1.3a.44.44,0,0,0,.42.46c.38,0,.51-.34.51-.81,0-.09,0-.25,0-.38h5.12l-.23,1H95l.87-1h0Z"/><path class="cls-5" d="M92.18,109.59a.35.35,0,0,0,.5,0c.51-.59-1.25-1.34-1.25-1.34l-.14.14A12.92,12.92,0,0,1,92.18,109.59Z"/><path class="cls-5" d="M93,114v-1.31h2.58v-.3h0l-.79-.37-.5.37H93v-.46l1-.78v-.3H90.44v.3h2.68l-.93.78h0v.46H89.05v.3h3.13V114c0,.14-.09.14-.29.14l-1.19-.06v.25c1.19.13,1,.72,1,.72C93,114.87,93,114,93,114Z"/><path class="cls-5" d="M73.8,111.45v-.32c-.25.1-.5.2-.75.28v-1.3h.75v-.3h-.75v-1.38H72.2v1.38h-1v.3h1v1.57c-.7.2-1.19.29-1.19.29l.24.77c.35-.14.66-.28,1-.41v1.55c0,.25,0,.34-.5.34-.21,0-.41,0-.41,0v.19A.79.79,0,0,1,72,115h1.08v-3.14C73.4,111.7,73.65,111.55,73.8,111.45Z"/><path class="cls-5" d="M78.06,114.17a5,5,0,0,1-1.89-.74,8.18,8.18,0,0,0,1.41-2h0v-.3H76v-1h2v-.3h0l-.79-.37-.5.37H76v-1.38h-.85v1.38H74v.3h1.15v1H74v.3h.13a5.07,5.07,0,0,0,1,2,7.13,7.13,0,0,1-1.92,1.38V115a4.81,4.81,0,0,0,2.44-1.09,5.26,5.26,0,0,0,1.87,1.1.88.88,0,0,1,.58-.66Zm-3.55-2.78h1.93a5.91,5.91,0,0,1-.92,1.51A4.39,4.39,0,0,1,74.51,111.39Z"/><path class="cls-5" d="M58.67,110.28H55.45c.13-.17.27-.36.4-.57h3.42v-.3h0l-.78-.37-.51.37H56a6.53,6.53,0,0,0,.36-.75l-.93-.24a7.19,7.19,0,0,1-1,2.65l.19.15s.13-.12.33-.34v1h-.68v.3h.68v1.75h.85v-.16h2c0,.29-.07.47-.42.47H56.13v.19s1.06.09,1.06.6c0,0,1.47,0,1.48-1.26h.6v-.3h-.6v-1.29h.6v-.3h-.6Zm-.86,3.19h-.42c.49-.57-1.14-1.2-1.14-1.2l-.13.14c.62.66.57.86.79,1H55.79v-1.29h2Zm0-1.59h-.44l0,0c.49-.56-1.14-1.2-1.14-1.2l-.13.14a12.84,12.84,0,0,1,.79,1.06l0,0H55.79v-1.3h2Z"/><path class="cls-5" d="M53.8,109.62a.33.33,0,0,0,.48,0c.48-.56-1.15-1.2-1.15-1.2l-.12.14C53.63,109.23,53.58,109.43,53.8,109.62Z"/><path class="cls-5" d="M53.23,111.1a.33.33,0,0,0,.48,0c.49-.56-1.14-1.2-1.14-1.2l-.13.14A10.66,10.66,0,0,1,53.23,111.1Z"/><path class="cls-5" d="M54.6,109.41a16.89,16.89,0,0,1-1.27,2.81c-.27.3-.8.14-.8.14v.28s.7.15.7,1.59c0,.46,0,.8,0,.8h.56s0-1.71.05-2.28a25.17,25.17,0,0,1,1-3.34Z"/><path class="cls-5" d="M44.34,118.85c-.21-.06-.35-.17-.35-.38a.54.54,0,0,1,.54-.5.72.72,0,0,1,.8.64h.36c0-.62-.52-1-1.14-1s-1.08.28-1.08.87a.76.76,0,0,0,.66.76c.41.11,1.08.22,1.13.64,0,.27-.17.53-.63.53a.84.84,0,0,1-.94-.75h-.33c0,.73.56,1.06,1.24,1.06s1.18-.27,1.18-.93S44.88,119,44.34,118.85Z"/><path class="cls-5" d="M89.29,119.3c-.16,0-.3-.12-.27-.28s.2-.22.39-.22.52.09.58.38h.27c0-.45-.38-.69-.83-.69s-.79.2-.79.64c0,.21.08.44.5.56s.8.27.8.5-.16.26-.46.26-.61,0-.65-.47h-.27a.79.79,0,0,0,.9.78c.43,0,.86-.2.86-.68C90.32,119.75,90.08,119.52,89.29,119.3Z"/><path class="cls-5" d="M47.54,118.49a.77.77,0,0,0-.65.34h0v-1.1h-.47v3h.47v-1.27a.58.58,0,0,1,.52-.63c.29,0,.41.21.42.55v1.35h.48v-1.48A.68.68,0,0,0,47.54,118.49Z"/><path class="cls-5" d="M71.79,118.49a.77.77,0,0,0-.65.34h0v-1.1h-.47v3h.47v-1.27a.58.58,0,0,1,.52-.63c.28,0,.41.21.42.55v1.35h.47v-1.48A.67.67,0,0,0,71.79,118.49Z"/><path class="cls-5" d="M58.05,118.49a.76.76,0,0,0-.64.34h0v-1.1h-.47v3h.47v-1.27a.58.58,0,0,1,.52-.63c.28,0,.41.21.42.55v1.35h.47v-1.48A.68.68,0,0,0,58.05,118.49Z"/><path class="cls-5" d="M52.72,118.49a.77.77,0,0,0-.66.38h0v-.32H51.6v2.15h.47v-1.27a.58.58,0,0,1,.52-.63c.28,0,.41.21.42.55v1.35h.48v-1.48A.68.68,0,0,0,52.72,118.49Z"/><path class="cls-5" d="M79.15,118.49a.77.77,0,0,0-.67.38h0v-.32H78v2.15h.47v-1.27a.58.58,0,0,1,.52-.63c.28,0,.41.21.42.55v1.35h.47v-1.48A.67.67,0,0,0,79.15,118.49Z"/><path class="cls-5" d="M55.74,118.85h0a.68.68,0,0,0-.64-.36,1,1,0,0,0-1,1.08c0,.61.28,1.13,1,1.13a.74.74,0,0,0,.65-.38h0v.33a.52.52,0,0,1-.55.59c-.28,0-.55-.09-.62-.36H54.2c0,.5.53.67,1,.67.68,0,1.06-.32,1.06-1v-2h-.48Zm-.57,1.54c-.4,0-.57-.43-.57-.78s.14-.81.56-.81.58.41.58.78S55.59,120.39,55.17,120.39Z"/><rect class="cls-5" x="62.15" y="118.55" width="0.47" height="2.15"/><rect class="cls-5" x="62.15" y="117.73" width="0.47" height="0.45"/><polygon class="cls-5" points="65.57 117.73 63.17 117.73 63.17 118.04 64.11 118.04 64.11 120.7 64.63 120.7 64.63 118.04 65.57 118.04 65.57 117.73"/><path class="cls-5" d="M66.57,118.49a1.06,1.06,0,0,0-1,1.13,1,1,0,0,0,1,1.14.94.94,0,0,0,1-.74h-.34a.66.66,0,0,1-.63.43c-.46,0-.61-.43-.59-.77h1.6A1,1,0,0,0,66.57,118.49Zm-.57.89a.57.57,0,0,1,.57-.58.56.56,0,0,1,.54.58Z"/><path class="cls-5" d="M85.26,118.49a1.06,1.06,0,0,0-1,1.13,1,1,0,0,0,1,1.14.94.94,0,0,0,1-.74H85.9a.63.63,0,0,1-1.22-.34h1.61A1,1,0,0,0,85.26,118.49Zm-.56.89a.55.55,0,1,1,1.1,0Z"/><path class="cls-5" d="M69.14,118.8a.57.57,0,0,1,.62.47h.35a.86.86,0,0,0-1-.78,1,1,0,0,0-1.06,1.16,1,1,0,0,0,1,1.11.92.92,0,0,0,1-.87h-.36a.59.59,0,0,1-.62.56c-.41,0-.57-.45-.57-.8C68.56,119,68.9,118.82,69.14,118.8Z"/><path class="cls-5" d="M76.73,119.46c0,.4,0,1-.7,1s-.69-.6-.69-1v-1.73h-.52v1.9a1.22,1.22,0,0,0,2.43,0v-1.9h-.52Z"/><rect class="cls-5" x="80.67" y="117.73" width="0.47" height="0.45"/><rect class="cls-5" x="80.67" y="118.55" width="0.47" height="2.15"/><polygon class="cls-5" points="82.88 120.2 82.87 120.2 82.22 118.55 81.7 118.55 82.48 120.7 83.03 120.7 83.78 118.55 83.42 118.55 82.88 120.2"/><path class="cls-5" d="M87.4,119h0v-.42H87v2.15h.47v-1c0-.47.26-.83.58-.83l.2,0v-.32H88A.66.66,0,0,0,87.4,119Z"/><rect class="cls-5" x="90.92" y="118.55" width="0.47" height="2.15"/><rect class="cls-5" x="90.92" y="117.73" width="0.47" height="0.45"/><path class="cls-5" d="M92.77,117.91H92.3v.62h-.36v.31h.36v1.33c0,.36.09.55.59.55a1.55,1.55,0,0,0,.31,0v-.31H93c-.21,0-.23-.1-.23-.29v-1.26h.43v-.31h-.43Z"/><path class="cls-5" d="M50.84,120.23h0v-1.11c0-.45-.44-.62-.86-.62s-.94.16-1,.72h.3a.54.54,0,0,1,.64-.41c.19,0,.45.11.45.36s-.3.23-.65.3-.82.13-.82.67a.65.65,0,0,0,.73.63,1.06,1.06,0,0,0,.74-.27v.27h.44v-.36h0Zm-.47-.26a.54.54,0,0,1-.53.48c-.17,0-.44-.13-.44-.34s.18-.33.39-.36a1.65,1.65,0,0,0,.58-.13Z"/><path class="cls-5" d="M61.4,120.23h0v-1.11c0-.45-.44-.62-.86-.62s-.94.16-1,.72h.3a.55.55,0,0,1,.65-.41c.18,0,.44.11.44.36s-.3.23-.64.3-.83.13-.83.67a.66.66,0,0,0,.74.63,1.08,1.08,0,0,0,.74-.27v.27h.44v-.36h0Zm-.48-.26a.54.54,0,0,1-.53.48c-.16,0-.43-.13-.43-.34s.18-.33.38-.36a1.6,1.6,0,0,0,.58-.13Z"/><path class="cls-5" d="M94.72,120.15h0l-.64-1.6h-.52l.9,2.14-.32.87h.43l1.12-3h-.4Z"/></g></g></svg>